%FSLAX23Y23*%
%MOIN*%
G70*
G01*
G75*
G04 Layer_Physical_Order=2*
G04 Layer_Color=16711680*
%ADD10R,0.024X0.020*%
%ADD11R,0.118X0.059*%
%ADD12R,0.118X0.039*%
%ADD13R,0.051X0.079*%
%ADD14C,0.010*%
%ADD15C,0.236*%
%ADD16C,0.039*%
G36*
X-60Y1135D02*
X1675D01*
Y-160D01*
X1670Y-165D01*
X1665Y-160D01*
X-86D01*
X-90Y-156D01*
X-65Y1134D01*
X-60Y1135D01*
X-60Y1135D01*
D02*
G37*
%LPC*%
G36*
X1520Y1040D02*
X40D01*
X34Y1039D01*
X29Y1036D01*
X-6Y1001D01*
X-9Y996D01*
X-10Y990D01*
Y30D01*
X-10Y30D01*
X-10D01*
X-9Y24D01*
X-6Y19D01*
X19Y-6D01*
X24Y-9D01*
X25Y-9D01*
X30Y-10D01*
X1540D01*
X1546Y-9D01*
X1551Y-6D01*
X1551Y-6D01*
X1551Y-6D01*
X1556Y-1D01*
X1559Y4D01*
X1560Y10D01*
X1560Y10D01*
X1560Y10D01*
Y10D01*
Y1000D01*
X1559Y1005D01*
X1559Y1006D01*
X1556Y1011D01*
X1531Y1036D01*
X1526Y1039D01*
X1520Y1040D01*
D02*
G37*
%LPD*%
G36*
X1530Y994D02*
Y20D01*
X36D01*
X20Y36D01*
Y984D01*
X46Y1010D01*
X1514D01*
X1530Y994D01*
D02*
G37*
%LPC*%
G36*
X570Y1004D02*
X550Y1002D01*
X530Y997D01*
X512Y989D01*
X494Y979D01*
X479Y966D01*
X466Y951D01*
X456Y933D01*
X448Y915D01*
X443Y895D01*
X441Y875D01*
X443Y855D01*
X448Y835D01*
X456Y817D01*
X466Y799D01*
X479Y784D01*
X494Y771D01*
X512Y761D01*
X530Y753D01*
X550Y748D01*
X570Y746D01*
X590Y748D01*
X610Y753D01*
X628Y761D01*
X646Y771D01*
X661Y784D01*
X674Y799D01*
X684Y817D01*
X692Y835D01*
X697Y855D01*
X699Y875D01*
X697Y895D01*
X692Y915D01*
X684Y933D01*
X674Y951D01*
X661Y966D01*
X646Y979D01*
X628Y989D01*
X610Y997D01*
X590Y1002D01*
X570Y1004D01*
D02*
G37*
G36*
Y284D02*
X550Y282D01*
X530Y277D01*
X512Y269D01*
X494Y259D01*
X479Y246D01*
X466Y231D01*
X456Y213D01*
X448Y195D01*
X443Y175D01*
X441Y155D01*
X443Y135D01*
X448Y115D01*
X456Y97D01*
X466Y79D01*
X479Y64D01*
X494Y51D01*
X512Y41D01*
X530Y33D01*
X550Y28D01*
X570Y26D01*
X590Y28D01*
X610Y33D01*
X628Y41D01*
X646Y51D01*
X661Y64D01*
X674Y79D01*
X684Y97D01*
X692Y115D01*
X697Y135D01*
X699Y155D01*
X697Y175D01*
X692Y195D01*
X684Y213D01*
X674Y231D01*
X661Y246D01*
X646Y259D01*
X628Y269D01*
X610Y277D01*
X590Y282D01*
X570Y284D01*
D02*
G37*
%LPD*%
D15*
Y155D02*
D03*
Y875D02*
D03*
D16*
X659Y155D02*
D03*
X633Y92D02*
D03*
X570Y66D02*
D03*
X507Y92D02*
D03*
X481Y155D02*
D03*
X570Y244D02*
D03*
X633Y218D02*
D03*
X507D02*
D03*
X659Y875D02*
D03*
X633Y812D02*
D03*
X570Y786D02*
D03*
X507Y812D02*
D03*
X481Y875D02*
D03*
X570Y964D02*
D03*
X633Y938D02*
D03*
X507D02*
D03*
M02*
