%FSLAX23Y23*%
%MOIN*%
G70*
G01*
G75*
%ADD10C,0.004*%
%ADD11C,0.005*%
%ADD12C,0.007*%
D10*
X998Y583D02*
X1042D01*
X998Y607D02*
X1042D01*
Y583D02*
Y607D01*
X998Y583D02*
Y607D01*
X998Y467D02*
X1042D01*
X998Y443D02*
X1042D01*
X998D02*
Y467D01*
X1042Y443D02*
Y467D01*
X998Y513D02*
X1042D01*
X998Y537D02*
X1042D01*
Y513D02*
Y537D01*
X998Y513D02*
Y537D01*
Y373D02*
X1042D01*
X998Y397D02*
X1042D01*
Y373D02*
Y397D01*
X998Y373D02*
Y397D01*
X998Y687D02*
X1042D01*
X998Y663D02*
X1042D01*
X998D02*
Y687D01*
X1042Y663D02*
Y687D01*
X1020Y583D02*
Y607D01*
X1008Y595D02*
X1032D01*
X985Y581D02*
X1055D01*
X985Y609D02*
X1055D01*
Y581D02*
Y609D01*
X985Y581D02*
Y609D01*
X1020Y443D02*
Y467D01*
X1008Y455D02*
X1032D01*
X985Y469D02*
X1055D01*
X985Y441D02*
X1055D01*
X985D02*
Y469D01*
X1055Y441D02*
Y469D01*
X1020Y513D02*
Y537D01*
X1008Y525D02*
X1032D01*
X985Y511D02*
X1055D01*
X985Y539D02*
X1055D01*
Y511D02*
Y539D01*
X985Y511D02*
Y539D01*
X1020Y373D02*
Y397D01*
X1008Y385D02*
X1032D01*
X985Y371D02*
X1055D01*
X985Y399D02*
X1055D01*
Y371D02*
Y399D01*
X985Y371D02*
Y399D01*
X1020Y663D02*
Y687D01*
X1008Y675D02*
X1032D01*
X985Y689D02*
X1055D01*
X985Y661D02*
X1055D01*
X985D02*
Y689D01*
X1055Y661D02*
Y689D01*
D11*
X511Y155D02*
X629D01*
X570Y96D02*
Y214D01*
X649Y155D02*
X668D01*
X659Y145D02*
Y165D01*
X623Y92D02*
X642D01*
X633Y83D02*
Y102D01*
X560Y66D02*
X580D01*
X570Y57D02*
Y76D01*
X498Y92D02*
X517D01*
X507Y83D02*
Y102D01*
X472Y155D02*
X491D01*
X481Y145D02*
Y165D01*
X560Y244D02*
X580D01*
X570Y234D02*
Y253D01*
X623Y218D02*
X642D01*
X633Y208D02*
Y227D01*
X498Y218D02*
X517D01*
X507Y208D02*
Y227D01*
X511Y875D02*
X629D01*
X570Y816D02*
Y934D01*
X649Y875D02*
X668D01*
X659Y865D02*
Y885D01*
X623Y812D02*
X642D01*
X633Y803D02*
Y822D01*
X560Y786D02*
X580D01*
X570Y777D02*
Y796D01*
X498Y812D02*
X517D01*
X507Y803D02*
Y822D01*
X472Y875D02*
X491D01*
X481Y865D02*
Y885D01*
X560Y964D02*
X580D01*
X570Y954D02*
Y973D01*
X623Y938D02*
X642D01*
X633Y928D02*
Y947D01*
X498Y938D02*
X517D01*
X507Y928D02*
Y947D01*
M02*
