%FSLAX23Y23*%
%MOIN*%
G70*
G01*
G75*
%ADD10R,0.024X0.020*%
%ADD11R,0.118X0.059*%
%ADD12R,0.118X0.039*%
%ADD13R,0.051X0.079*%
%ADD14C,0.010*%
%ADD15C,0.236*%
%ADD16C,0.039*%
%ADD17C,0.005*%
D14*
X1280Y360D02*
X1535D01*
X1280D02*
Y755D01*
X1285Y760D01*
X1535D01*
Y360D02*
Y760D01*
D17*
X935Y585D02*
Y605D01*
X945D01*
X948Y602D01*
Y595D01*
X945Y592D01*
X935D01*
X942D02*
X948Y585D01*
X955Y602D02*
X958Y605D01*
X965D01*
X968Y602D01*
Y598D01*
X965Y595D01*
X962D01*
X965D01*
X968Y592D01*
Y588D01*
X965Y585D01*
X958D01*
X955Y588D01*
X930Y445D02*
Y465D01*
X940D01*
X943Y462D01*
Y455D01*
X940Y452D01*
X930D01*
X937D02*
X943Y445D01*
X963D02*
X950D01*
X963Y458D01*
Y462D01*
X960Y465D01*
X953D01*
X950Y462D01*
X940Y515D02*
Y535D01*
X950D01*
X953Y532D01*
Y525D01*
X950Y522D01*
X940D01*
X947D02*
X953Y515D01*
X960D02*
X967D01*
X963D01*
Y535D01*
X960Y532D01*
X944Y396D02*
Y376D01*
X957D01*
X1192Y760D02*
X1185D01*
X1189D01*
Y743D01*
X1185Y740D01*
X1182D01*
X1179Y743D01*
X957Y683D02*
X954Y686D01*
X947D01*
X944Y683D01*
Y669D01*
X947Y666D01*
X954D01*
X957Y669D01*
M02*
