%FSLAX23Y23*%
%MOIN*%
G70*
G01*
G75*
G04 Layer_Color=8388736*
%ADD10R,0.024X0.020*%
%ADD11R,0.118X0.059*%
%ADD12R,0.118X0.039*%
%ADD13R,0.051X0.079*%
%ADD14C,0.010*%
%ADD15C,0.236*%
%ADD16C,0.039*%
%ADD17C,0.005*%
%ADD18C,0.059*%
%ADD19R,0.032X0.028*%
%ADD20R,0.126X0.067*%
%ADD21R,0.126X0.047*%
%ADD22R,0.059X0.087*%
D15*
X570Y155D02*
D03*
Y875D02*
D03*
D16*
X659Y155D02*
D03*
X633Y92D02*
D03*
X570Y66D02*
D03*
X507Y92D02*
D03*
X481Y155D02*
D03*
X570Y244D02*
D03*
X633Y218D02*
D03*
X507D02*
D03*
X659Y875D02*
D03*
X633Y812D02*
D03*
X570Y786D02*
D03*
X507Y812D02*
D03*
X481Y875D02*
D03*
X570Y964D02*
D03*
X633Y938D02*
D03*
X507D02*
D03*
D17*
X910Y105D02*
X905Y110D01*
X895D01*
X890Y105D01*
Y100D01*
X895Y95D01*
X905D01*
X910Y90D01*
Y85D01*
X905Y80D01*
X895D01*
X890Y85D01*
X935Y80D02*
X925D01*
X920Y85D01*
Y95D01*
X925Y100D01*
X935D01*
X940Y95D01*
Y90D01*
X920D01*
X950Y80D02*
Y100D01*
X965D01*
X970Y95D01*
Y80D01*
X980D02*
X995D01*
X1000Y85D01*
X995Y90D01*
X985D01*
X980Y95D01*
X985Y100D01*
X1000D01*
X1015Y80D02*
X1025D01*
X1030Y85D01*
Y95D01*
X1025Y100D01*
X1015D01*
X1010Y95D01*
Y85D01*
X1015Y80D01*
X1040Y100D02*
Y80D01*
Y90D01*
X1045Y95D01*
X1050Y100D01*
X1055D01*
X1100Y110D02*
Y90D01*
X1110Y80D01*
X1120Y90D01*
Y110D01*
X1150Y80D02*
X1130D01*
X1150Y100D01*
Y105D01*
X1145Y110D01*
X1135D01*
X1130Y105D01*
X910Y135D02*
Y165D01*
X920Y155D01*
X930Y165D01*
Y135D01*
X945Y155D02*
X955D01*
X960Y150D01*
Y135D01*
X945D01*
X940Y140D01*
X945Y145D01*
X960D01*
X980Y125D02*
X985D01*
X990Y130D01*
Y155D01*
X975D01*
X970Y150D01*
Y140D01*
X975Y135D01*
X990D01*
X1000D02*
Y155D01*
X1015D01*
X1020Y150D01*
Y135D01*
X1045D02*
X1035D01*
X1030Y140D01*
Y150D01*
X1035Y155D01*
X1045D01*
X1050Y150D01*
Y145D01*
X1030D01*
X1065Y160D02*
Y155D01*
X1060D01*
X1070D01*
X1065D01*
Y140D01*
X1070Y135D01*
X1085D02*
X1095D01*
X1090D01*
Y155D01*
X1085D01*
X1130D02*
X1115D01*
X1110Y150D01*
Y140D01*
X1115Y135D01*
X1130D01*
D18*
X659Y155D02*
G03*
X659Y155I-89J0D01*
G01*
Y875D02*
G03*
X659Y875I-89J0D01*
G01*
D19*
X1040Y595D02*
D03*
X1000D02*
D03*
X1000Y455D02*
D03*
X1040D02*
D03*
X1040Y525D02*
D03*
X1000D02*
D03*
X1040Y385D02*
D03*
X1000D02*
D03*
X1000Y675D02*
D03*
X1040D02*
D03*
D20*
X1477Y395D02*
D03*
Y725D02*
D03*
D21*
X1280Y639D02*
D03*
Y481D02*
D03*
Y560D02*
D03*
Y639D02*
D03*
D22*
X80Y847D02*
D03*
Y129D02*
D03*
M02*
