%FSLAX23Y23*%
%MOIN*%
G70*
G01*
G75*
G04 Layer_Physical_Order=1*
G04 Layer_Color=255*
%ADD10R,0.024X0.020*%
%ADD11R,0.118X0.059*%
%ADD12R,0.118X0.039*%
%ADD13R,0.051X0.079*%
%ADD14C,0.010*%
%ADD15C,0.236*%
%ADD16C,0.039*%
G36*
X1715Y1105D02*
X1695Y1085D01*
Y-165D01*
X-75D01*
X-100Y-190D01*
X-105Y-188D01*
X-65Y1140D01*
X1680D01*
X1715Y1105D01*
D02*
G37*
%LPC*%
G36*
X1520Y1040D02*
X40D01*
X34Y1039D01*
X29Y1036D01*
X-6Y1001D01*
X-9Y996D01*
X-10Y990D01*
Y30D01*
X-10Y30D01*
X-10D01*
X-9Y24D01*
X-6Y19D01*
X19Y-6D01*
X24Y-9D01*
X25Y-9D01*
X30Y-10D01*
X1540D01*
X1546Y-9D01*
X1551Y-6D01*
X1551Y-6D01*
X1551Y-6D01*
X1556Y-1D01*
X1559Y4D01*
X1560Y10D01*
X1560Y10D01*
X1560Y10D01*
Y10D01*
Y1000D01*
X1559Y1005D01*
X1559Y1006D01*
X1556Y1011D01*
X1531Y1036D01*
X1526Y1039D01*
X1520Y1040D01*
D02*
G37*
%LPD*%
G36*
X1530Y994D02*
Y765D01*
X1408D01*
Y686D01*
X1530D01*
Y434D01*
X1408D01*
Y355D01*
X1530D01*
Y20D01*
X36D01*
X20Y36D01*
Y984D01*
X46Y1010D01*
X1514D01*
X1530Y994D01*
D02*
G37*
%LPC*%
G36*
X1035Y615D02*
X979D01*
Y575D01*
X985D01*
Y545D01*
X979D01*
Y505D01*
X985D01*
Y475D01*
X979D01*
Y470D01*
X406D01*
X400Y469D01*
X395Y466D01*
X108Y178D01*
X44D01*
Y80D01*
X116D01*
Y143D01*
X412Y440D01*
X979D01*
Y435D01*
X1024D01*
Y405D01*
X1005D01*
Y385D01*
Y365D01*
X1061D01*
Y405D01*
X1055D01*
Y435D01*
X1061D01*
Y475D01*
X1016D01*
Y505D01*
X1038D01*
X1073Y470D01*
X1073D01*
X1073Y470D01*
X1073Y470D01*
Y470D01*
X1078Y467D01*
X1083Y466D01*
X1211D01*
Y452D01*
X1349D01*
Y511D01*
X1211D01*
Y497D01*
X1090D01*
X1061Y525D01*
Y545D01*
X1016D01*
Y575D01*
X1035D01*
Y595D01*
Y615D01*
D02*
G37*
G36*
X116Y896D02*
X44D01*
Y797D01*
X108D01*
X301Y604D01*
X306Y601D01*
X312Y600D01*
X780D01*
X786Y601D01*
X791Y604D01*
X791Y604D01*
X791Y604D01*
X901Y715D01*
X1014D01*
X1024Y704D01*
Y695D01*
X1005D01*
Y675D01*
Y655D01*
X1038D01*
X1144Y549D01*
X1144D01*
X1144Y549D01*
X1144D01*
X1144Y549D01*
Y549D01*
X1144Y549D01*
Y549D01*
X1149Y546D01*
X1155Y545D01*
X1211D01*
Y530D01*
X1349D01*
Y590D01*
X1211D01*
Y575D01*
X1161D01*
X1061Y675D01*
Y695D01*
X1055D01*
Y710D01*
X1054Y716D01*
X1050Y721D01*
X1031Y741D01*
X1026Y744D01*
X1020Y745D01*
X895D01*
X889Y744D01*
X884Y741D01*
X774Y630D01*
X318D01*
X116Y833D01*
Y896D01*
D02*
G37*
G36*
X995Y405D02*
X979D01*
Y390D01*
X995D01*
Y405D01*
D02*
G37*
G36*
X570Y284D02*
X550Y282D01*
X530Y277D01*
X512Y269D01*
X494Y259D01*
X479Y246D01*
X466Y231D01*
X456Y213D01*
X448Y195D01*
X443Y175D01*
X441Y155D01*
X443Y135D01*
X448Y115D01*
X456Y97D01*
X466Y79D01*
X479Y64D01*
X494Y51D01*
X512Y41D01*
X530Y33D01*
X550Y28D01*
X570Y26D01*
X590Y28D01*
X610Y33D01*
X628Y41D01*
X646Y51D01*
X661Y64D01*
X674Y79D01*
X684Y97D01*
X692Y115D01*
X697Y135D01*
X699Y155D01*
X697Y175D01*
X692Y195D01*
X684Y213D01*
X674Y231D01*
X661Y246D01*
X646Y259D01*
X628Y269D01*
X610Y277D01*
X590Y282D01*
X570Y284D01*
D02*
G37*
G36*
X995Y380D02*
X979D01*
Y365D01*
X995D01*
Y380D01*
D02*
G37*
G36*
X1061Y590D02*
X1045D01*
Y575D01*
X1061D01*
Y590D01*
D02*
G37*
G36*
X995Y670D02*
X979D01*
Y655D01*
X995D01*
Y670D01*
D02*
G37*
G36*
X1349Y668D02*
X1285D01*
Y644D01*
X1349D01*
Y668D01*
D02*
G37*
G36*
X570Y1004D02*
X550Y1002D01*
X530Y997D01*
X512Y989D01*
X494Y979D01*
X479Y966D01*
X466Y951D01*
X456Y933D01*
X448Y915D01*
X443Y895D01*
X441Y875D01*
X443Y855D01*
X448Y835D01*
X456Y817D01*
X466Y799D01*
X479Y784D01*
X494Y771D01*
X512Y761D01*
X530Y753D01*
X550Y748D01*
X570Y746D01*
X590Y748D01*
X610Y753D01*
X628Y761D01*
X646Y771D01*
X661Y784D01*
X674Y799D01*
X684Y817D01*
X692Y835D01*
X697Y855D01*
X699Y875D01*
X697Y895D01*
X692Y915D01*
X684Y933D01*
X674Y951D01*
X661Y966D01*
X646Y979D01*
X628Y989D01*
X610Y997D01*
X590Y1002D01*
X570Y1004D01*
D02*
G37*
G36*
X995Y695D02*
X979D01*
Y680D01*
X995D01*
Y695D01*
D02*
G37*
G36*
X1275Y634D02*
X1211D01*
Y609D01*
X1275D01*
Y634D01*
D02*
G37*
G36*
X1061Y615D02*
X1045D01*
Y600D01*
X1061D01*
Y615D01*
D02*
G37*
G36*
X1275Y668D02*
X1211D01*
Y644D01*
X1275D01*
Y668D01*
D02*
G37*
G36*
X1349Y634D02*
X1285D01*
Y609D01*
X1349D01*
Y634D01*
D02*
G37*
%LPD*%
D10*
X1040Y595D02*
D03*
X1000D02*
D03*
X1000Y455D02*
D03*
X1040D02*
D03*
X1040Y525D02*
D03*
X1000D02*
D03*
X1040Y385D02*
D03*
X1000D02*
D03*
X1000Y675D02*
D03*
X1040D02*
D03*
D11*
X1477Y395D02*
D03*
Y725D02*
D03*
D12*
X1280Y639D02*
D03*
Y481D02*
D03*
Y560D02*
D03*
Y639D02*
D03*
D13*
X80Y847D02*
D03*
Y129D02*
D03*
D14*
X1155Y560D02*
X1280D01*
X1040Y675D02*
X1155Y560D01*
X1040Y675D02*
Y710D01*
X1020Y730D02*
X1040Y710D01*
X895Y730D02*
X1020D01*
X780Y615D02*
X895Y730D01*
X312Y615D02*
X780D01*
X80Y847D02*
X312Y615D01*
X1000Y525D02*
Y595D01*
Y455D02*
Y525D01*
X406Y455D02*
X1000D01*
X80Y129D02*
X406Y455D01*
X1040Y385D02*
Y455D01*
Y525D02*
X1083Y481D01*
X1280D01*
D15*
X570Y155D02*
D03*
Y875D02*
D03*
D16*
X659Y155D02*
D03*
X633Y92D02*
D03*
X570Y66D02*
D03*
X507Y92D02*
D03*
X481Y155D02*
D03*
X570Y244D02*
D03*
X633Y218D02*
D03*
X507D02*
D03*
X659Y875D02*
D03*
X633Y812D02*
D03*
X570Y786D02*
D03*
X507Y812D02*
D03*
X481Y875D02*
D03*
X570Y964D02*
D03*
X633Y938D02*
D03*
X507D02*
D03*
M02*
